<?xml version="1.0" encoding="utf-8" ?>
<svg baseProfile="full" height="200mm" version="1.1" viewBox="0,0,200,200" width="200mm" xmlns="http://www.w3.org/2000/svg" xmlns:ev="http://www.w3.org/2001/xml-events" xmlns:xlink="http://www.w3.org/1999/xlink"><defs /><rect fill="#1a1a1a" height="200" width="200" x="0" y="0" /><text alignment-baseline="middle" fill="#e1ed5e" style="dominant-baseline: central; font-size:9.0px; font-family:Arial;" text-anchor="middle" x="100.0" y="100.0">2024</text><line stroke="#e1ed5e" stroke-width="0.3" x1="100.0" x2="100.0" y1="15.0" y2="10.0" /><path d="M 100.0 14.0 a86.0,86.0 0 0,1 42.35913384403234,11.155469271406648" fill="none" id="id1" stroke="none" /><text fill="#e1ed5e" style="font-size:6.75px; font-family:Arial;" text-anchor="middle"><textPath startOffset="22.145653131862478" xlink:href="#id1">January</textPath></text><line stroke="#e1ed5e" stroke-width="0.3" x1="143.13028292997686" x2="145.6673583964461" y1="26.7553504044142" y2="22.446841604673864" /><path d="M 143.63769802327073 25.89364864446614 a86.0,86.0 0 0,1 29.32050498858742,28.57503671076993" fill="none" id="id2" stroke="none" /><text fill="#e1ed5e" style="font-size:6.75px; font-family:Arial;" text-anchor="middle"><textPath startOffset="20.669276256404974" xlink:href="#id2">February</textPath></text><path d="M 114.91283532996326 85.21462403516908 l 22.037442281135444 -21.849089205402738 a52.032749820150045,52.032749820150045 0 0,0 0.6234346012936893,0.6396988225180487 l -22.409263683579944 21.467567690816946" fill="#b2ff20" stroke="none" /><path d="M 115.16444852881244 85.47280134310134 l 20.29961257620071 -19.446569652186362 a49.11126717138844,49.11126717138844 0 0,0 0.5779791990108849,0.6137938800989747 l -20.630447608947854 19.095234312142892" fill="#d8ff1c" stroke="none" /><path d="M 115.41159269507618 85.73525988315684 l 28.718220843707613 -26.581156474793037 a60.13175293754925,60.13175293754925 0 0,0 0.6946715007170302,0.7635656678235226 l -29.170290045266523 26.084253231411843" fill="#50ff2b" stroke="none" /><path d="M 115.6541949942343 86.00192230759917 l 30.392444489850803 -27.177111271937395 a61.7712651159604,61.7712651159604 0 0,0 0.7000417934704413,0.7965190560697788 l -30.854497347279835 26.651379938056316" fill="#3dff2e" stroke="none" /><path d="M 115.8921839302757 86.27271002978787 l 31.5540779149344 -27.25566097028278 a62.69569387825015,62.69569387825015 0 0,0 0.696535534594744,0.8205171083389244 l -32.017308013036256 26.7099770794943" fill="#33ff2f" stroke="none" /><path d="M 116.1254893667686 86.54754324733833 l 11.58354926284714 -9.663408778272851 a36.08509472097565,36.08509472097565 0 0,0 0.3927315798359235,0.47906867013817556 l -11.74772766192169 9.46313782643618" fill="#ff6a09" stroke="none" /><path d="M 116.35404254752997 86.82634096563983 l 27.72808837672231 -22.3357852278986 a56.60525504436299,56.60525504436299 0 0,0 0.6030712264533434,0.7619607938411653 l -28.107426033817212 21.856504490142758" fill="#79ff26" stroke="none" /><path d="M 116.57777611688842 87.10902102172516 l 33.0851317535434 -25.727198565185724 a62.91079442293859,62.91079442293859 0 0,0 0.6556144267871341,0.8582203301701935 l -33.52189815768484 25.155457321774648" fill="#30ff2f" stroke="none" /><path d="M 116.7966241395341 87.39550010848427 l 31.482090252006774 -23.62474744148883 a60.3605220787229,60.3605220787229 0 0,0 0.6148092271192725,0.8341067941181979 l -31.883001498709874 23.080834338101756" fill="#4dff2c" stroke="none" /><path d="M 117.01052211995028 87.68569379921539 l 25.049306424863243 -18.133766104173453 a51.92412044808332,51.92412044808332 0 0,0 0.5164840373198257,0.7264994795583616 l -25.35690556071303 17.701089397905587" fill="#b3ff20" stroke="none" /><path d="M 117.21940702142032 87.97951657250589 l 27.927045548802795 -19.495246716722754 a55.058545442088324,55.058545442088324 0 0,0 0.5343569827198766,0.7796428072402075 l -28.257592268337998 19.012969174412497" fill="#8cff24" stroke="none" /><path d="M 117.42321728460499 88.27688183743584 l 28.49753380334574 -19.174412547416186 a55.34774416772293,55.34774416772293 0 0,0 0.5236306727140266,0.7928435778187174 l -28.822488914980493 18.682389091258408" fill="#88ff25" stroke="none" /><path d="M 117.62189284568427 88.57770195909679 l 32.97155093849418 -21.37176096735474 a60.29217909629681,60.29217909629681 0 0,0 0.555498570878894,0.8733360192818056 l -33.33356720099897 20.802611273394263" fill="#4eff2c" stroke="none" /><path d="M 117.81537515405839 88.88188828441811 l 28.19725130580677 -17.597170274513193 a54.23771025316022,54.23771025316022 0 0,0 0.4861559335347831,0.7940991813922595 l -28.495175203796954 17.11053397699638" fill="#96ff23" stroke="none" /><line stroke="#e1ed5e" stroke-width="0.3" x1="172.87174338648825" x2="177.1583165268699" y1="56.24261187166439" y2="53.66864786411523" /><path d="M 173.72905801456457 55.72781907015455 a86.0,86.0 0 0,1 12.242430191666344,42.057860355516425" fill="none" id="id3" stroke="none" /><text fill="#e1ed5e" style="font-size:6.75px; font-family:Arial;" text-anchor="middle"><textPath startOffset="22.145653131862474" xlink:href="#id3">March</textPath></text><path d="M 118.00360718960297 89.18935116829356 l 30.95601562332749 -18.58819794323627 a57.108115515056014,57.108115515056014 0 0,0 0.49745598536427843,0.8447890174147035 l -31.270545318821537 18.05405775752801" fill="#73ff27" stroke="none" /><path d="M 118.53625476483649 90.13048839642627 l 35.82410156599691 -19.074316283348132 a61.58565996368745,61.58565996368745 0 0,0 0.4888491706095002,0.9374327418229327 l -36.146258805581354 18.456537298420702" fill="#3fff2d" stroke="none" /><path d="M 118.70294669586156 90.45014215332178 l 23.313491193255256 -11.90403471847763 a47.176801068822584,47.176801068822584 0 0,0 0.3620933757459735,0.7244293082283435 l -23.514404482212967 11.502073554085536" fill="#f2ff19" stroke="none" /><path d="M 118.8641267826498 90.77261029715802 l 33.80304695785846 -16.534764159373026 a58.6303655236203,58.6303655236203 0 0,0 0.43448099946987545,0.9078981841730716 l -34.081907215288254 15.95205347313485" fill="#61ff29" stroke="none" /><path d="M 119.0197475246899 91.09779779509293 l 35.222140786190494 -16.48574035808526 a59.88931519989038,59.88931519989038 0 0,0 0.42782512710362186,0.9348751128638881 l -35.499950378149165 15.878676263006687" fill="#52ff2b" stroke="none" /><path d="M 119.16976305983485 91.42560881287824 l 30.830148551610655 -13.78993330347728 a54.77366311534377,54.77366311534377 0 0,0 0.3765457672224971,0.8616104049675031 l -31.062328200850125 13.258660828733928" fill="#8fff24" stroke="none" /><path d="M 119.31412917781788 91.75594674310238 l 24.876593087855735 -10.618338335543024 a48.04799424480149,48.04799424480149 0 0,0 0.31728642969589343,0.7613719272010722 l -25.055205362088113 10.189733898900673" fill="#e6ff1a" stroke="none" /><path d="M 119.4528033332814 92.08871423366111 l 7.848160900827482 -3.1917787150208317 a29.472371621390156,29.472371621390156 0 0,0 0.18657600643992375,0.47029341669674407 l -7.901795582233531 3.056584281110522" fill="#ff0000" stroke="none" /><path d="M 119.71291397450082 92.76114493625339 l 59.13874192350249 -21.71656519123983 a84.0,84.0 0 0,0 0.48543931982422706,1.3578601744763328 l -59.50282141337066 20.69817006038258" fill="#4dd2ff" stroke="none" /><path d="M 119.83427380445688 93.10060997987247 l 27.959320776252834 -9.725703125560194 a50.60258298790723,50.60258298790723 0 0,0 0.27834933529511996,0.8228903503644093 l -28.122155533120317 9.244311100721623" fill="#c4ff1e" stroke="none" /><line stroke="#e1ed5e" stroke-width="0.3" x1="184.99686870605535" x2="189.99668451229388" y1="99.2704041080226" y2="99.22748670261217" /><path d="M 185.99683186730306 99.26182062694052 a86.0,86.0 0 0,1 -10.086455211305974,41.156179273409016" fill="none" id="id4" stroke="none" /><text fill="#e1ed5e" style="font-size:6.75px; font-family:Arial;" text-anchor="middle"><textPath startOffset="21.40746469413373" xlink:href="#id4">April</textPath></text><line stroke="#e1ed5e" stroke-width="0.3" x1="174.33088141563837" x2="178.70328620479359" y1="141.23008692659167" y2="143.65538615756765" /><path d="M 175.20536237346943 141.71514677278685 a86.0,86.0 0 0,1 -30.301960400862466,31.631185727798858" fill="none" id="id5" stroke="none" /><text fill="#e1ed5e" style="font-size:6.75px; font-family:Arial;" text-anchor="middle"><textPath startOffset="22.145653131862474" xlink:href="#id5">May</textPath></text><line stroke="#e1ed5e" stroke-width="0.3" x1="143.1302829299769" x2="145.66735839644613" y1="173.24464959558577" y2="177.55315839532614" /><path d="M 143.63769802327073 174.10635135553383 a86.0,86.0 0 0,1 -40.68552437913181,11.842963189579606" fill="none" id="id6" stroke="none" /><text fill="#e1ed5e" style="font-size:6.75px; font-family:Arial;" text-anchor="middle"><textPath startOffset="21.407464694133747" xlink:href="#id6">June</textPath></text><line stroke="#e1ed5e" stroke-width="0.3" x1="101.45913802915013" x2="101.54496967792366" y1="184.9874750549273" y2="189.98673829345242" /><path d="M 101.47630435890484 185.9873277026323 a86.0,86.0 0 0,1 -42.54439059252881,-10.42667462771756" fill="none" id="id7" stroke="none" /><text fill="#e1ed5e" style="font-size:6.75px; font-family:Arial;" text-anchor="middle"><textPath startOffset="22.145653131862474" xlink:href="#id7">July</textPath></text><line stroke="#e1ed5e" stroke-width="0.3" x1="58.13341422392154" x2="55.67067388415222" y1="173.97424548756322" y2="178.32567169271397" /><path d="M 57.64086615596768 174.84453072859336 a86.0,86.0 0 0,1 -31.369924170532247,-30.572349798747897" fill="none" id="id8" stroke="none" /><text fill="#e1ed5e" style="font-size:6.75px; font-family:Arial;" text-anchor="middle"><textPath startOffset="22.145653131862474" xlink:href="#id8">August</textPath></text><line stroke="#e1ed5e" stroke-width="0.3" x1="26.387840678322732" x2="22.057713659400548" y1="142.50000000000003" y2="145.00000000000006" /><path d="M 25.521815274538298 143.00000000000003 a86.0,86.0 0 0,1 -11.493303480769221,-40.785679425670985" fill="none" id="id9" stroke="none" /><text fill="#e1ed5e" style="font-size:6.75px; font-family:Arial;" text-anchor="middle"><textPath startOffset="21.40746469413373" xlink:href="#id9">September</textPath></text><line stroke="#e1ed5e" stroke-width="0.3" x1="15.003131293944662" x2="10.003315487706104" y1="100.72959589197737" y2="100.7725132973878" /><path d="M 14.003168132696942 100.73817937305945 a86.0,86.0 0 0,1 10.791469493833604,-42.45332614584628" fill="none" id="id10" stroke="none" /><text fill="#e1ed5e" style="font-size:6.75px; font-family:Arial;" text-anchor="middle"><textPath startOffset="22.145653131862435" xlink:href="#id10">October</textPath></text><line stroke="#e1ed5e" stroke-width="0.3" x1="26.387840678322718" x2="22.05771365940052" y1="57.49999999999999" y2="54.99999999999999" /><path d="M 25.521815274538284 56.99999999999999 a86.0,86.0 0 0,1 29.574782752854787,-30.34633250058573" fill="none" id="id11" stroke="none" /><text fill="#e1ed5e" style="font-size:6.75px; font-family:Arial;" text-anchor="middle"><textPath startOffset="21.40746469413373" xlink:href="#id11">November</textPath></text><line stroke="#e1ed5e" stroke-width="0.3" x1="56.869717070023135" x2="54.33264160355391" y1="26.7553504044142" y2="22.446841604673864" /><path d="M 56.362301976729285 25.89364864446614 a86.0,86.0 0 0,1 42.16139366436587,-11.88097634709845" fill="none" id="id12" stroke="none" /><text fill="#e1ed5e" style="font-size:6.75px; font-family:Arial;" text-anchor="middle"><textPath startOffset="22.145653131862474" xlink:href="#id12">December</textPath></text></svg>